<svg xmlns="http://www.w3.org/2000/svg" xmlns:xlink="http://www.w3.org/1999/xlink" width="500" zoomAndPan="magnify" viewBox="0 0 375 374.999991" height="500" preserveAspectRatio="xMidYMid meet" version="1.0"><defs><g/><clipPath id="bb6bdeb69a"><path d="M 191.699219 13.183594 L 258.820312 13.183594 L 258.820312 233.421875 L 191.699219 233.421875 Z M 191.699219 13.183594 " clip-rule="nonzero"/></clipPath><clipPath id="5a44bfbc77"><path d="M 258.820312 35.554688 L 258.820312 233.277344 L 191.699219 210.90625 L 191.699219 13.183594 Z M 258.820312 35.554688 " clip-rule="nonzero"/></clipPath><clipPath id="4e1c61e3a2"><path d="M 146.289062 13.03125 L 191.710938 13.03125 L 191.710938 90.921875 L 146.289062 90.921875 Z M 146.289062 13.03125 " clip-rule="nonzero"/></clipPath><clipPath id="b15993f560"><path d="M 146.289062 28.316406 L 146.289062 90.921875 L 191.710938 75.78125 L 191.710938 13.175781 Z M 146.289062 28.316406 " clip-rule="nonzero"/></clipPath><clipPath id="a921532584"><path d="M 110.261719 67.488281 L 158.417969 67.488281 L 158.417969 199.539062 L 110.261719 199.539062 Z M 110.261719 67.488281 " clip-rule="nonzero"/></clipPath><clipPath id="1f40b4f670"><path d="M 158.417969 83.539062 L 158.417969 199.457031 L 110.261719 183.40625 L 110.261719 67.488281 Z M 158.417969 83.539062 " clip-rule="nonzero"/></clipPath><clipPath id="e6416a8155"><path d="M 72.324219 67.355469 L 110.261719 67.355469 L 110.261719 123.222656 L 72.324219 123.222656 Z M 72.324219 67.355469 " clip-rule="nonzero"/></clipPath><clipPath id="71ccb6663c"><path d="M 72.324219 80.125 L 72.324219 123.222656 L 110.261719 110.578125 L 110.261719 67.480469 Z M 72.324219 80.125 " clip-rule="nonzero"/></clipPath></defs><g clip-path="url(#bb6bdeb69a)"><g clip-path="url(#5a44bfbc77)"><path fill="#ffffff" d="M 258.820312 13.183594 L 258.820312 233.160156 L 191.699219 233.160156 L 191.699219 13.183594 Z M 258.820312 13.183594 " fill-opacity="1" fill-rule="nonzero"/></g></g><g clip-path="url(#4e1c61e3a2)"><g clip-path="url(#b15993f560)"><path fill="#c0c0c0" d="M 146.289062 90.921875 L 146.289062 13.207031 L 191.710938 13.207031 L 191.710938 90.921875 Z M 146.289062 90.921875 " fill-opacity="1" fill-rule="nonzero"/></g></g><g clip-path="url(#a921532584)"><g clip-path="url(#1f40b4f670)"><path fill="#ffffff" d="M 158.417969 67.488281 L 158.417969 199.539062 L 110.261719 199.539062 L 110.261719 67.488281 Z M 158.417969 67.488281 " fill-opacity="1" fill-rule="nonzero"/></g></g><g clip-path="url(#e6416a8155)"><g clip-path="url(#71ccb6663c)"><path fill="#c0c0c0" d="M 72.324219 123.222656 L 72.324219 67.503906 L 110.261719 67.503906 L 110.261719 123.222656 Z M 72.324219 123.222656 " fill-opacity="1" fill-rule="nonzero"/></g></g><g fill="#ffffff" fill-opacity="1"><g transform="translate(43.408692, 314.057926)"><g><path d="M 12.796875 -43.296875 L 12.796875 -24.578125 L 37.4375 -24.578125 L 37.4375 -20.21875 L 12.796875 -20.21875 L 12.796875 0 L 7.765625 0 L 7.765625 -47.65625 L 40.4375 -47.65625 L 40.4375 -43.296875 Z M 12.796875 -43.296875 "/></g></g></g><g fill="#ffffff" fill-opacity="1"><g transform="translate(86.494, 314.057926)"><g><path d="M 28.59375 0.40625 C 23.875 0.40625 19.59375 -0.644531 15.75 -2.75 C 11.914062 -4.863281 8.921875 -7.757812 6.765625 -11.4375 C 4.617188 -15.113281 3.546875 -19.242188 3.546875 -23.828125 C 3.546875 -28.410156 4.617188 -32.539062 6.765625 -36.21875 C 8.921875 -39.894531 11.914062 -42.785156 15.75 -44.890625 C 19.59375 -47.003906 23.875 -48.0625 28.59375 -48.0625 C 33.3125 -48.0625 37.566406 -47.015625 41.359375 -44.921875 C 45.148438 -42.835938 48.132812 -39.945312 50.3125 -36.25 C 52.488281 -32.550781 53.578125 -28.410156 53.578125 -23.828125 C 53.578125 -19.242188 52.488281 -15.101562 50.3125 -11.40625 C 48.132812 -7.707031 45.148438 -4.8125 41.359375 -2.71875 C 37.566406 -0.632812 33.3125 0.40625 28.59375 0.40625 Z M 28.59375 -4.078125 C 32.363281 -4.078125 35.765625 -4.925781 38.796875 -6.625 C 41.835938 -8.332031 44.222656 -10.695312 45.953125 -13.71875 C 47.679688 -16.738281 48.546875 -20.109375 48.546875 -23.828125 C 48.546875 -27.546875 47.679688 -30.914062 45.953125 -33.9375 C 44.222656 -36.957031 41.835938 -39.316406 38.796875 -41.015625 C 35.765625 -42.710938 32.363281 -43.5625 28.59375 -43.5625 C 24.820312 -43.5625 21.40625 -42.710938 18.34375 -41.015625 C 15.28125 -39.316406 12.875 -36.957031 11.125 -33.9375 C 9.382812 -30.914062 8.515625 -27.546875 8.515625 -23.828125 C 8.515625 -20.109375 9.382812 -16.738281 11.125 -13.71875 C 12.875 -10.695312 15.28125 -8.332031 18.34375 -6.625 C 21.40625 -4.925781 24.820312 -4.078125 28.59375 -4.078125 Z M 28.59375 -4.078125 "/></g></g></g><g fill="#ffffff" fill-opacity="1"><g transform="translate(143.600773, 314.057926)"><g><path d="M 40.296875 0 L 29.40625 -15.3125 C 28.1875 -15.175781 26.914062 -15.109375 25.59375 -15.109375 L 12.796875 -15.109375 L 12.796875 0 L 7.765625 0 L 7.765625 -47.65625 L 25.59375 -47.65625 C 31.675781 -47.65625 36.441406 -46.203125 39.890625 -43.296875 C 43.335938 -40.390625 45.0625 -36.394531 45.0625 -31.3125 C 45.0625 -27.59375 44.117188 -24.453125 42.234375 -21.890625 C 40.359375 -19.328125 37.671875 -17.476562 34.171875 -16.34375 L 45.8125 0 Z M 25.46875 -19.40625 C 30.1875 -19.40625 33.789062 -20.445312 36.28125 -22.53125 C 38.78125 -24.625 40.03125 -27.550781 40.03125 -31.3125 C 40.03125 -35.175781 38.78125 -38.140625 36.28125 -40.203125 C 33.789062 -42.265625 30.1875 -43.296875 25.46875 -43.296875 L 12.796875 -43.296875 L 12.796875 -19.40625 Z M 25.46875 -19.40625 "/></g></g></g><g fill="#ffffff" fill-opacity="1"><g transform="translate(192.811961, 314.057926)"><g><path d="M 37.78125 -24.578125 C 40.914062 -23.898438 43.332031 -22.550781 45.03125 -20.53125 C 46.738281 -18.507812 47.59375 -15.910156 47.59375 -12.734375 C 47.59375 -8.648438 46.082031 -5.503906 43.0625 -3.296875 C 40.039062 -1.097656 35.582031 0 29.6875 0 L 7.765625 0 L 7.765625 -47.65625 L 28.328125 -47.65625 C 33.628906 -47.65625 37.742188 -46.585938 40.671875 -44.453125 C 43.597656 -42.316406 45.0625 -39.300781 45.0625 -35.40625 C 45.0625 -32.769531 44.414062 -30.53125 43.125 -28.6875 C 41.832031 -26.851562 40.050781 -25.484375 37.78125 -24.578125 Z M 12.796875 -43.5 L 12.796875 -26.203125 L 27.984375 -26.203125 C 31.835938 -26.203125 34.804688 -26.941406 36.890625 -28.421875 C 38.984375 -29.898438 40.03125 -32.046875 40.03125 -34.859375 C 40.03125 -37.671875 38.984375 -39.8125 36.890625 -41.28125 C 34.804688 -42.757812 31.835938 -43.5 27.984375 -43.5 Z M 29.609375 -4.15625 C 33.878906 -4.15625 37.101562 -4.878906 39.28125 -6.328125 C 41.457031 -7.785156 42.546875 -10.054688 42.546875 -13.140625 C 42.546875 -19.085938 38.234375 -22.0625 29.609375 -22.0625 L 12.796875 -22.0625 L 12.796875 -4.15625 Z M 29.609375 -4.15625 "/></g></g></g><g fill="#ffffff" fill-opacity="1"><g transform="translate(244.133186, 314.057926)"><g><path d="M 41.453125 -4.359375 L 41.453125 0 L 7.765625 0 L 7.765625 -47.65625 L 40.4375 -47.65625 L 40.4375 -43.296875 L 12.796875 -43.296875 L 12.796875 -26.34375 L 37.4375 -26.34375 L 37.4375 -22.0625 L 12.796875 -22.0625 L 12.796875 -4.359375 Z M 41.453125 -4.359375 "/></g></g></g><g fill="#ffffff" fill-opacity="1"><g transform="translate(289.668864, 314.057926)"><g><path d="M 20.90625 0.40625 C 17.363281 0.40625 13.96875 -0.160156 10.71875 -1.296875 C 7.476562 -2.429688 4.972656 -3.925781 3.203125 -5.78125 L 5.171875 -9.671875 C 6.898438 -7.941406 9.191406 -6.539062 12.046875 -5.46875 C 14.910156 -4.40625 17.863281 -3.875 20.90625 -3.875 C 25.164062 -3.875 28.363281 -4.65625 30.5 -6.21875 C 32.632812 -7.789062 33.703125 -9.828125 33.703125 -12.328125 C 33.703125 -14.234375 33.125 -15.75 31.96875 -16.875 C 30.8125 -18.007812 29.390625 -18.882812 27.703125 -19.5 C 26.023438 -20.113281 23.691406 -20.785156 20.703125 -21.515625 C 17.109375 -22.421875 14.242188 -23.289062 12.109375 -24.125 C 9.984375 -24.96875 8.160156 -26.25 6.640625 -27.96875 C 5.117188 -29.695312 4.359375 -32.035156 4.359375 -34.984375 C 4.359375 -37.390625 4.992188 -39.578125 6.265625 -41.546875 C 7.535156 -43.523438 9.484375 -45.101562 12.109375 -46.28125 C 14.742188 -47.46875 18.015625 -48.0625 21.921875 -48.0625 C 24.640625 -48.0625 27.300781 -47.6875 29.90625 -46.9375 C 32.519531 -46.1875 34.78125 -45.15625 36.6875 -43.84375 L 34.984375 -39.828125 C 32.992188 -41.140625 30.863281 -42.125 28.59375 -42.78125 C 26.320312 -43.445312 24.097656 -43.78125 21.921875 -43.78125 C 17.742188 -43.78125 14.597656 -42.972656 12.484375 -41.359375 C 10.378906 -39.742188 9.328125 -37.664062 9.328125 -35.125 C 9.328125 -33.21875 9.90625 -31.6875 11.0625 -30.53125 C 12.21875 -29.375 13.671875 -28.488281 15.421875 -27.875 C 17.171875 -27.257812 19.519531 -26.59375 22.46875 -25.875 C 25.957031 -25.007812 28.78125 -24.15625 30.9375 -23.3125 C 33.09375 -22.476562 34.921875 -21.207031 36.421875 -19.5 C 37.921875 -17.800781 38.671875 -15.5 38.671875 -12.59375 C 38.671875 -10.1875 38.019531 -7.992188 36.71875 -6.015625 C 35.425781 -4.046875 33.441406 -2.484375 30.765625 -1.328125 C 28.085938 -0.171875 24.800781 0.40625 20.90625 0.40625 Z M 20.90625 0.40625 "/></g></g></g><g fill="#ffffff" fill-opacity="1"><g transform="translate(145.079531, 352.774859)"><g><path d="M 7.007812 -15.734375 C 4 -15.734375 1.742188 -14.195312 1.742188 -11.460938 C 1.742188 -9.585938 2.960938 -8.023438 5.222656 -7.484375 L 8.476562 -6.691406 C 10.171875 -6.285156 11.03125 -5.425781 11.03125 -4.183594 C 11.03125 -2.488281 9.628906 -1.425781 7.300781 -1.425781 C 4.972656 -1.425781 3.277344 -2.578125 2.710938 -4.566406 L 0.972656 -4.183594 C 1.988281 -1.175781 4.089844 0.226562 7.257812 0.226562 C 11.078125 0.226562 13.042969 -1.832031 13.042969 -4.429688 C 13.042969 -6.421875 11.753906 -7.933594 9.609375 -8.476562 L 5.582031 -9.496094 C 4.476562 -9.765625 3.640625 -10.445312 3.640625 -11.734375 C 3.640625 -13.246094 5.265625 -14.195312 6.960938 -14.195312 C 8.65625 -14.195312 10.445312 -13.089844 10.761719 -11.460938 L 12.523438 -11.9375 C 11.6875 -14.355469 9.71875 -15.734375 7.007812 -15.734375 Z M 7.007812 -15.734375 "/></g></g></g><g fill="#ffffff" fill-opacity="1"><g transform="translate(164.136406, 352.774859)"><g><path d="M 5.199219 -15.507812 L 0.179688 0 L 1.808594 0 L 3.1875 -4.519531 L 8.929688 -4.519531 L 10.488281 0 L 12.476562 0 L 7.4375 -15.507812 Z M 8.5 -5.992188 L 3.730469 -5.992188 L 6.125 -13.429688 Z M 8.5 -5.992188 "/></g></g></g><g fill="#ffffff" fill-opacity="1"><g transform="translate(181.836924, 352.774859)"><g><path d="M 1.898438 -15.507812 L 1.898438 0 L 11.054688 0 L 11.054688 -1.71875 L 3.84375 -1.71875 L 3.84375 -15.507812 Z M 1.898438 -15.507812 "/></g></g></g><g fill="#ffffff" fill-opacity="1"><g transform="translate(198.181085, 352.774859)"><g><path d="M 1.921875 -15.507812 L 1.921875 0 L 11.957031 0 L 11.957031 -1.671875 L 3.867188 -1.671875 L 3.867188 -7.347656 L 10.105469 -7.347656 L 10.105469 -8.90625 L 3.867188 -8.90625 L 3.867188 -13.835938 L 11.734375 -13.835938 L 11.734375 -15.507812 Z M 1.921875 -15.507812 "/></g></g></g><g fill="#ffffff" fill-opacity="1"><g transform="translate(215.881602, 352.774859)"><g><path d="M 7.007812 -15.734375 C 4 -15.734375 1.742188 -14.195312 1.742188 -11.460938 C 1.742188 -9.585938 2.960938 -8.023438 5.222656 -7.484375 L 8.476562 -6.691406 C 10.171875 -6.285156 11.03125 -5.425781 11.03125 -4.183594 C 11.03125 -2.488281 9.628906 -1.425781 7.300781 -1.425781 C 4.972656 -1.425781 3.277344 -2.578125 2.710938 -4.566406 L 0.972656 -4.183594 C 1.988281 -1.175781 4.089844 0.226562 7.257812 0.226562 C 11.078125 0.226562 13.042969 -1.832031 13.042969 -4.429688 C 13.042969 -6.421875 11.753906 -7.933594 9.609375 -8.476562 L 5.582031 -9.496094 C 4.476562 -9.765625 3.640625 -10.445312 3.640625 -11.734375 C 3.640625 -13.246094 5.265625 -14.195312 6.960938 -14.195312 C 8.65625 -14.195312 10.445312 -13.089844 10.761719 -11.460938 L 12.523438 -11.9375 C 11.6875 -14.355469 9.71875 -15.734375 7.007812 -15.734375 Z M 7.007812 -15.734375 "/></g></g></g></svg>